{
	"asset":{
		"generator":"Khronos glTF Blender I/O v3.5.30",
		"version":"2.0"
	},
	"scene":0,
	"scenes":[
		{
			"name":"Scene",
			"nodes":[
				2,
				3
			]
		}
	],
	"nodes":[
		{
			"mesh":0,
			"name":"Object_2",
			"rotation":[
				-0.11062445491552353,
				0.7111570239067078,
				-0.14223146438598633,
				0.6795499324798584
			],
			"translation":[
				0,
				-18,
				18
			]
		},
		{
			"children":[
				0
			],
			"name":"076ac874f6fb466ba3ea3f104bc713c5.stl.cleaner.materialmerger.gle"
		},
		{
			"children":[
				1
			],
			"name":"Sketchfab_model",
			"rotation":[
				-0.70710688829422,
				0,
				0,
				0.7071066498756409
			]
		},
		{
			"mesh":1,
			"name":"Text",
			"rotation":[
				0.5,
				0.5,
				-0.5,
				0.5
			],
			"scale":[
				1.5,
				5,
				2
			],
			"translation":[
				1,
				5.5,
				7
			]
		}
	],
	"materials":[
		{
			"doubleSided":true,
			"name":"Scene_-_Root",
			"pbrMetallicRoughness":{
				"baseColorFactor":[
					0.16466020047664642,
					0,
					1,
					1
				],
				"metallicFactor":0,
				"roughnessFactor":0.6000000238418579
			}
		},
		{
			"doubleSided":true,
			"name":"Material.001",
			"pbrMetallicRoughness":{
				"baseColorFactor":[
					0.7500619292259216,
					0.747089684009552,
					0.8000000715255737,
					1
				],
				"metallicFactor":0,
				"roughnessFactor":0.5
			}
		}
	],
	"meshes":[
		{
			"name":"Object_0",
			"primitives":[
				{
					"attributes":{
						"POSITION":0,
						"NORMAL":1
					},
					"indices":2,
					"material":0
				}
			]
		},
		{
			"name":"Text.001",
			"primitives":[
				{
					"attributes":{
						"POSITION":3,
						"TEXCOORD_0":4,
						"NORMAL":5
					},
					"indices":6,
					"material":1
				}
			]
		}
	],
	"accessors":[
		{
			"bufferView":0,
			"componentType":5126,
			"count":1210,
			"max":[
				11.5540771484375,
				22,
				0.5
			],
			"min":[
				4.000035762786865,
				13.253323554992676,
				0
			],
			"type":"VEC3"
		},
		{
			"bufferView":1,
			"componentType":5126,
			"count":1210,
			"type":"VEC3"
		},
		{
			"bufferView":2,
			"componentType":5123,
			"count":3612,
			"type":"SCALAR"
		},
		{
			"bufferView":3,
			"componentType":5126,
			"count":552,
			"max":[
				3.1750001907348633,
				0,
				1.2300000190734863
			],
			"min":[
				0.05700000375509262,
				0,
				-0.6820000410079956
			],
			"type":"VEC3"
		},
		{
			"bufferView":4,
			"componentType":5126,
			"count":552,
			"type":"VEC2"
		},
		{
			"bufferView":5,
			"componentType":5126,
			"count":552,
			"type":"VEC3"
		},
		{
			"bufferView":6,
			"componentType":5123,
			"count":1608,
			"type":"SCALAR"
		}
	],
	"bufferViews":[
		{
			"buffer":0,
			"byteLength":14520,
			"byteOffset":0,
			"target":34962
		},
		{
			"buffer":0,
			"byteLength":14520,
			"byteOffset":14520,
			"target":34962
		},
		{
			"buffer":0,
			"byteLength":7224,
			"byteOffset":29040,
			"target":34963
		},
		{
			"buffer":0,
			"byteLength":6624,
			"byteOffset":36264,
			"target":34962
		},
		{
			"buffer":0,
			"byteLength":4416,
			"byteOffset":42888,
			"target":34962
		},
		{
			"buffer":0,
			"byteLength":6624,
			"byteOffset":47304,
			"target":34962
		},
		{
			"buffer":0,
			"byteLength":3216,
			"byteOffset":53928,
			"target":34963
		}
	],
	"buffers":[
		{
			"byteLength":57144,
			"uri":"scene.bin"
		}
	]
}
