<svg xmlns="http://www.w3.org/2000/svg" version="1.1" xmlns:xlink="http://www.w3.org/1999/xlink" xmlns:svgjs="http://svgjs.dev/svgjs" width="1000" height="623" viewBox="0 0 1000 623"><g transform="matrix(1,0,0,1,-0.6060606060606233,0.2522267206477409)"><svg viewBox="0 0 396 247" data-background-color="#8abcd7" preserveAspectRatio="xMidYMid meet" height="623" width="1000" xmlns="http://www.w3.org/2000/svg" xmlns:xlink="http://www.w3.org/1999/xlink"><g id="tight-bounds" transform="matrix(1,0,0,1,0.2400000000000091,-0.09999999999999432)"><svg viewBox="0 0 395.52 247.2" height="247.2" width="395.52"><g><svg></svg></g><g><svg viewBox="0 0 395.52 247.2" height="247.2" width="395.52"><mask id="080723c5-8965-4c3f-84f7-ddf587743dc3"><rect width="395.52" height="247.2" fill="white"></rect><g transform="matrix(1,0,0,1,0,55.0778947368421)" id="clone"><svg viewBox="0 0 395.52 137.0442105263158" height="137.0442105263158" width="395.52"><g><svg viewBox="0 0 395.52 137.0442105263158" height="137.0442105263158" width="395.52"><g><svg viewBox="0 0 395.52 137.0442105263158" height="137.0442105263158" width="395.52"><g><svg viewBox="0 0 395.52 137.0442105263158" height="137.0442105263158" width="395.52"><g id="SvgjsG1134"><svg viewBox="0 0 395.52 137.0442105263158" height="137.0442105263158" width="395.52" id="SvgjsSvg1133"><g><svg viewBox="0 0 395.52 137.0442105263158" height="137.0442105263158" width="395.52"><g transform="matrix(1,0,0,1,0,0)"><svg width="395.52" viewBox="-2.9499999955296516 -40.95000076293945 126.38999938964844 44.45000076293945" height="137.0442105263158" data-palette-color="#ffffff"><path d="M32.3 0L26.9 0Q26.65-0.55 26.2-1.6 25.75-2.65 25.18-4.03 24.6-5.4 23.93-7.03 23.25-8.65 22.55-10.4L22.55-10.4 9.75-10.4 5.45 0 0.05 0 16.2-37.95Q16.5-37.25 17.28-35.4 18.05-33.55 19.13-30.98 20.2-28.4 21.53-25.28 22.85-22.15 24.23-18.95 25.6-15.75 26.93-12.65 28.25-9.55 29.35-6.95 30.45-4.35 31.23-2.53 32-0.7 32.3 0L32.3 0ZM15.65-24.7L11.65-15 20.7-15Q20-16.65 19.38-18.18 18.75-19.7 18.23-20.98 17.7-22.25 17.3-23.2 16.9-24.15 16.7-24.7L16.7-24.7Q16.65-24.8 16.48-25.4 16.3-26 16.2-26.5L16.2-26.5Q16.1-26 15.9-25.4 15.7-24.8 15.65-24.7L15.65-24.7ZM35.35 0L35.35-20.9 39.1-20.9Q39.2-19.35 39.27-18.07 39.35-16.8 39.45-15.55L39.45-15.55Q40.6-18.25 42.72-19.85 44.85-21.45 47.95-21.45L47.95-21.45Q51.1-21.45 53-19.7 54.9-17.95 55-15.2L55-15.2 55 0 50.7 0 50.7-13.25Q50.6-14.85 49.6-15.98 48.6-17.1 46.45-17.2L46.45-17.2Q44.95-17.2 43.7-16.68 42.45-16.15 41.55-15.25 40.65-14.35 40.12-13.1 39.6-11.85 39.6-10.35L39.6-10.35 39.6 0 35.35 0ZM62.6-20.85L62.6-30.1 66.85-30.1 66.85-20.85 72.45-20.85 72.45-17.05 66.85-17.05 66.85 0 62.6 0 62.6-17.05 58.85-17.05 58.85-20.85 62.6-20.85ZM74.09-10.5L74.09-10.5Q74.09-12.75 74.97-14.75 75.84-16.75 77.34-18.23 78.84-19.7 80.87-20.58 82.89-21.45 85.24-21.45L85.24-21.45Q87.59-21.45 89.62-20.58 91.64-19.7 93.12-18.23 94.59-16.75 95.42-14.75 96.24-12.75 96.24-10.5L96.24-10.5Q96.24-8.25 95.42-6.25 94.59-4.25 93.12-2.75 91.64-1.25 89.62-0.38 87.59 0.5 85.19 0.5L85.19 0.5Q82.89 0.5 80.87-0.3 78.84-1.1 77.34-2.55 75.84-4 74.97-6.03 74.09-8.05 74.09-10.5ZM78.34-10.45L78.34-10.45Q78.34-9.05 78.87-7.83 79.39-6.6 80.32-5.68 81.24-4.75 82.47-4.23 83.69-3.7 85.09-3.7L85.09-3.7Q86.49-3.7 87.74-4.23 88.99-4.75 89.92-5.68 90.84-6.6 91.39-7.83 91.94-9.05 91.94-10.45L91.94-10.45Q91.94-11.85 91.39-13.1 90.84-14.35 89.92-15.28 88.99-16.2 87.74-16.73 86.49-17.25 85.09-17.25L85.09-17.25Q83.69-17.25 82.47-16.73 81.24-16.2 80.32-15.28 79.39-14.35 78.87-13.1 78.34-11.85 78.34-10.45ZM100.79 0L100.79-20.9 104.54-20.9Q104.64-19.35 104.72-18.07 104.79-16.8 104.89-15.55L104.89-15.55Q106.04-18.25 108.17-19.85 110.29-21.45 113.39-21.45L113.39-21.45Q116.54-21.45 118.44-19.7 120.34-17.95 120.44-15.2L120.44-15.2 120.44 0 116.14 0 116.14-13.25Q116.04-14.85 115.04-15.98 114.04-17.1 111.89-17.2L111.89-17.2Q110.39-17.2 109.14-16.68 107.89-16.15 106.99-15.25 106.09-14.35 105.57-13.1 105.04-11.85 105.04-10.35L105.04-10.35 105.04 0 100.79 0Z" opacity="1" transform="matrix(1,0,0,1,0,0)" fill="black" class="wordmark-text-0" id="SvgjsPath1132" stroke-width="5" stroke="black" stroke-linejoin="round"></path></svg></g></svg></g></svg></g></svg></g></svg></g></svg></g></svg></g></mask><g mask="url(#080723c5-8965-4c3f-84f7-ddf587743dc3)"><g><path xmlns="http://www.w3.org/2000/svg" d="M302.796 247.2h-35.175c-1.086-2.388-2.606-5.862-4.56-10.422-1.954-4.56-4.169-9.836-6.644-15.829-2.519-5.949-5.233-12.463-8.142-19.541-2.953-7.035-5.949-14.352-8.989-21.952v0h-83.377l-28.01 67.744h-35.175l105.199-247.2c1.303 3.04 3.648 8.577 7.035 16.61 3.344 8.034 7.361 17.631 12.05 28.791 4.647 11.204 9.858 23.58 15.634 37.129 5.732 13.592 11.595 27.336 17.587 41.233 5.949 13.896 11.812 27.575 17.587 41.037 5.732 13.462 10.987 25.838 15.764 37.129 4.777 11.291 8.859 20.888 12.246 28.791 3.344 7.947 5.667 13.44 6.97 16.48zM194.34 86.308l-26.055 63.184h58.95c-3.04-7.165-5.906-14.07-8.598-20.713-2.736-6.601-5.233-12.68-7.491-18.239-2.302-5.515-4.321-10.335-6.058-14.461-1.737-4.125-3.04-7.382-3.908-9.771v0c-0.217-0.434-0.695-1.954-1.433-4.559-0.782-2.606-1.39-4.994-1.824-7.166v0c-0.434 2.171-1.086 4.56-1.954 7.166-0.869 2.606-1.411 4.125-1.629 4.559z" fill="#ffffff" fill-rule="nonzero" stroke="none" stroke-width="1" stroke-linecap="butt" stroke-linejoin="miter" stroke-miterlimit="10" stroke-dasharray="" stroke-dashoffset="0" font-family="none" font-weight="none" font-size="none" text-anchor="none" style="mix-blend-mode: normal" data-fill-palette-color="tertiary"></path></g></g><g transform="matrix(1,0,0,1,0,55.0778947368421)"><svg viewBox="0 0 395.52 137.0442105263158" height="137.0442105263158" width="395.52"><g><svg viewBox="0 0 395.52 137.0442105263158" height="137.0442105263158" width="395.52"><g><svg viewBox="0 0 395.52 137.0442105263158" height="137.0442105263158" width="395.52"><g><svg viewBox="0 0 395.52 137.0442105263158" height="137.0442105263158" width="395.52"><g id="textblocktransform"><svg viewBox="0 0 395.52 137.0442105263158" height="137.0442105263158" width="395.52" id="textblock"><g><svg viewBox="0 0 395.52 137.0442105263158" height="137.0442105263158" width="395.52"><g transform="matrix(1,0,0,1,0,0)"><svg width="395.52" viewBox="-2.9499999955296516 -40.95000076293945 126.38999938964844 44.45000076293945" height="137.0442105263158" data-palette-color="#ffffff"><path d="M32.3 0L26.9 0Q26.65-0.55 26.2-1.6 25.75-2.65 25.18-4.03 24.6-5.4 23.93-7.03 23.25-8.65 22.55-10.4L22.55-10.4 9.75-10.4 5.45 0 0.05 0 16.2-37.95Q16.5-37.25 17.28-35.4 18.05-33.55 19.13-30.98 20.2-28.4 21.53-25.28 22.85-22.15 24.23-18.95 25.6-15.75 26.93-12.65 28.25-9.55 29.35-6.95 30.45-4.35 31.23-2.53 32-0.7 32.3 0L32.3 0ZM15.65-24.7L11.65-15 20.7-15Q20-16.65 19.38-18.18 18.75-19.7 18.23-20.98 17.7-22.25 17.3-23.2 16.9-24.15 16.7-24.7L16.7-24.7Q16.65-24.8 16.48-25.4 16.3-26 16.2-26.5L16.2-26.5Q16.1-26 15.9-25.4 15.7-24.8 15.65-24.7L15.65-24.7ZM35.35 0L35.35-20.9 39.1-20.9Q39.2-19.35 39.27-18.07 39.35-16.8 39.45-15.55L39.45-15.55Q40.6-18.25 42.72-19.85 44.85-21.45 47.95-21.45L47.95-21.45Q51.1-21.45 53-19.7 54.9-17.95 55-15.2L55-15.2 55 0 50.7 0 50.7-13.25Q50.6-14.85 49.6-15.98 48.6-17.1 46.45-17.2L46.45-17.2Q44.95-17.2 43.7-16.68 42.45-16.15 41.55-15.25 40.65-14.35 40.12-13.1 39.6-11.85 39.6-10.35L39.6-10.35 39.6 0 35.35 0ZM62.6-20.85L62.6-30.1 66.85-30.1 66.85-20.85 72.45-20.85 72.45-17.05 66.85-17.05 66.85 0 62.6 0 62.6-17.05 58.85-17.05 58.85-20.85 62.6-20.85ZM74.09-10.5L74.09-10.5Q74.09-12.75 74.97-14.75 75.84-16.75 77.34-18.23 78.84-19.7 80.87-20.58 82.89-21.45 85.24-21.45L85.24-21.45Q87.59-21.45 89.62-20.58 91.64-19.7 93.12-18.23 94.59-16.75 95.42-14.75 96.24-12.75 96.24-10.5L96.24-10.5Q96.24-8.25 95.42-6.25 94.59-4.25 93.12-2.75 91.64-1.25 89.62-0.38 87.59 0.5 85.19 0.5L85.19 0.5Q82.89 0.5 80.87-0.3 78.84-1.1 77.34-2.55 75.84-4 74.97-6.03 74.09-8.05 74.09-10.5ZM78.34-10.45L78.34-10.45Q78.34-9.05 78.87-7.83 79.39-6.6 80.32-5.68 81.24-4.75 82.47-4.23 83.69-3.7 85.09-3.7L85.09-3.7Q86.49-3.7 87.74-4.23 88.99-4.75 89.92-5.68 90.84-6.6 91.39-7.83 91.94-9.05 91.94-10.45L91.94-10.45Q91.94-11.85 91.39-13.1 90.84-14.35 89.92-15.28 88.99-16.2 87.74-16.73 86.49-17.25 85.09-17.25L85.09-17.25Q83.69-17.25 82.47-16.73 81.24-16.2 80.32-15.28 79.39-14.35 78.87-13.1 78.34-11.85 78.34-10.45ZM100.79 0L100.79-20.9 104.54-20.9Q104.64-19.35 104.72-18.07 104.79-16.8 104.89-15.55L104.89-15.55Q106.04-18.25 108.17-19.85 110.29-21.45 113.39-21.45L113.39-21.45Q116.54-21.45 118.44-19.7 120.34-17.95 120.44-15.2L120.44-15.2 120.44 0 116.14 0 116.14-13.25Q116.04-14.85 115.04-15.98 114.04-17.1 111.89-17.2L111.89-17.2Q110.39-17.2 109.14-16.68 107.89-16.15 106.99-15.25 106.09-14.35 105.57-13.1 105.04-11.85 105.04-10.35L105.04-10.35 105.04 0 100.79 0Z" opacity="1" transform="matrix(1,0,0,1,0,0)" fill="#ffffff" class="wordmark-text-0" data-fill-palette-color="primary" id="text-0"></path></svg></g></svg></g></svg></g></svg></g></svg></g></svg></g></svg></g></svg></g><defs></defs></svg><rect width="395.52" height="247.2" fill="none" stroke="none" visibility="hidden"></rect></g></svg></g></svg>